# xmcd
# 
# Track frame offsets:
#     150
#     13443
#     25738
#     37473
#     50092
#     62296
#     74450
#     86888
#     98790
#     111877
#     122334
#     134789
#     147321
#     160197
#     171853
#     184516
#     196514
#     210104
# 
# Disc length: 2966
# 
# Revision: 3
# Processed by: cddbd v1.5.2PL0 Copyright (c) Steve Scherf et al.
# Submitted via: fre:ac v1.0.17
# 
DISCID=010b9412
DTITLE=country music 1940-1948 - changing times
DYEAR=0
DGENRE=Country
TTITLE0=chet atkins - Bug dance
TTITLE1=wiley and gene - love ain't worryin'me
TTITLE2=clyde moody - you caused it all by telling lies
TTITLE3=charlie monroe - the end dof memory lane
TTITLE4=molly o'day - poor ellen smith
TTITLE5=red foley - tenesse saturday night
TTITLE6=bill monroe - mule skinner blues
TTITLE7=flatt and scruggs - my cabin in caroline
TTITLE8=carl story - i've found a hiding voice
TTITLE9=stanley brothers - little maggie
TTITLE10=hank williams - honky tonkin
TTITLE11=ted daffan - born to lose
TTITLE12=al dester - pistol packin' mama
TTITLE13=ernest tubb - theres'gonna be some changes mode around here
TTITLE14=jack guthrie - oklahoma hills
TTITLE15=jerry irby - drivin'nails in my coffin
TTITLE16=merle travis - divorce me C.O.D.
TTITLE17=hank williams - lovesick blues
EXTD=
EXTT0=
EXTT1=
EXTT2=
EXTT3=
EXTT4=
EXTT5=
EXTT6=
EXTT7=
EXTT8=
EXTT9=
EXTT10=
EXTT11=
EXTT12=
EXTT13=
EXTT14=
EXTT15=
EXTT16=
EXTT17=
PLAYORDER=
